<svg xmlns="http://www.w3.org/2000/svg" viewBox="0 0 48 48">
  <circle cx="24" cy="24" r="24" fill="#25D366"/>
  <path fill="#fff" d="M34.5 13.5C31.8 10.8 28.2 9.3 24.3 9.3c-8.1 0-14.7 6.6-14.7 14.7 0 2.6.7 5.1 2 7.3L9.3 38.7l7.6-2c2.1 1.1 4.5 1.7 6.9 1.7h.1c8.1 0 14.7-6.6 14.7-14.7 0-3.9-1.5-7.6-4.1-10.2zm-10.2 22.6h-.1c-2.2 0-4.4-.6-6.3-1.7l-.5-.3-4.5 1.2 1.2-4.4-.3-.5c-1.2-1.9-1.8-4.1-1.8-6.4 0-6.6 5.4-12 12-12 3.2 0 6.2 1.3 8.5 3.5 2.3 2.3 3.5 5.3 3.5 8.5-.1 6.6-5.4 12.1-11.7 12.1zm6.6-9c-.4-.2-2.2-1.1-2.5-1.2-.4-.1-.6-.2-.9.2-.3.4-1 1.2-1.2 1.5-.2.3-.5.3-.9.1-.4-.2-1.6-.6-3-1.9-1.1-1-1.8-2.2-2.1-2.6-.2-.4 0-.6.2-.8.2-.2.4-.5.6-.7.2-.2.3-.4.4-.7.1-.3.1-.5 0-.7-.1-.2-1-2.4-1.4-3.2-.3-.8-.7-.7-1-.7h-.8c-.3 0-.7.1-1.1.5-.4.4-1.4 1.4-1.4 3.4s1.5 4 1.7 4.2c.2.3 2.9 4.5 7.1 6.3 1 .4 1.8.7 2.4.9.9.3 1.8.2 2.5.1.7-.1 2.2-.9 2.5-1.8.3-.9.3-1.7.2-1.8-.1-.2-.4-.3-.8-.5z"/>
</svg>
